<svg id="visual" viewBox="0 0 900 600" width="900" height="600" xmlns="http://www.w3.org/2000/svg" xmlns:xlink="http://www.w3.org/1999/xlink" version="1.1"><path d="M0 121L13.7 108C27.3 95 54.7 69 82 65C109.3 61 136.7 79 163.8 93C191 107 218 117 245.2 115C272.3 113 299.7 99 327 87C354.3 75 381.7 65 409 64C436.3 63 463.7 71 491 78C518.3 85 545.7 91 573 88C600.3 85 627.7 73 654.8 71C682 69 709 77 736.2 83C763.3 89 790.7 93 818 100C845.3 107 872.7 117 886.3 122L900 127L900 0L886.3 0C872.7 0 845.3 0 818 0C790.7 0 763.3 0 736.2 0C709 0 682 0 654.8 0C627.7 0 600.3 0 573 0C545.7 0 518.3 0 491 0C463.7 0 436.3 0 409 0C381.7 0 354.3 0 327 0C299.7 0 272.3 0 245.2 0C218 0 191 0 163.8 0C136.7 0 109.3 0 82 0C54.7 0 27.3 0 13.7 0L0 0Z" fill="#e3776b"></path><path d="M0 217L13.7 220C27.3 223 54.7 229 82 257C109.3 285 136.7 335 163.8 338C191 341 218 297 245.2 270C272.3 243 299.7 233 327 227C354.3 221 381.7 219 409 234C436.3 249 463.7 281 491 293C518.3 305 545.7 297 573 275C600.3 253 627.7 217 654.8 206C682 195 709 209 736.2 232C763.3 255 790.7 287 818 293C845.3 299 872.7 279 886.3 269L900 259L900 125L886.3 120C872.7 115 845.3 105 818 98C790.7 91 763.3 87 736.2 81C709 75 682 67 654.8 69C627.7 71 600.3 83 573 86C545.7 89 518.3 83 491 76C463.7 69 436.3 61 409 62C381.7 63 354.3 73 327 85C299.7 97 272.3 111 245.2 113C218 115 191 105 163.8 91C136.7 77 109.3 59 82 63C54.7 67 27.3 93 13.7 106L0 119Z" fill="#d85a4d"></path><path d="M0 313L13.7 323C27.3 333 54.7 353 82 378C109.3 403 136.7 433 163.8 435C191 437 218 411 245.2 390C272.3 369 299.7 353 327 337C354.3 321 381.7 305 409 312C436.3 319 463.7 349 491 376C518.3 403 545.7 427 573 412C600.3 397 627.7 343 654.8 326C682 309 709 329 736.2 345C763.3 361 790.7 373 818 376C845.3 379 872.7 373 886.3 370L900 367L900 257L886.3 267C872.7 277 845.3 297 818 291C790.7 285 763.3 253 736.2 230C709 207 682 193 654.8 204C627.7 215 600.3 251 573 273C545.7 295 518.3 303 491 291C463.7 279 436.3 247 409 232C381.7 217 354.3 219 327 225C299.7 231 272.3 241 245.2 268C218 295 191 339 163.8 336C136.7 333 109.3 283 82 255C54.7 227 27.3 221 13.7 218L0 215Z" fill="#ca3b2e"></path><path d="M0 349L13.7 363C27.3 377 54.7 405 82 430C109.3 455 136.7 477 163.8 479C191 481 218 463 245.2 444C272.3 425 299.7 405 327 393C354.3 381 381.7 377 409 393C436.3 409 463.7 445 491 467C518.3 489 545.7 497 573 474C600.3 451 627.7 397 654.8 388C682 379 709 415 736.2 434C763.3 453 790.7 455 818 449C845.3 443 872.7 429 886.3 422L900 415L900 365L886.3 368C872.7 371 845.3 377 818 374C790.7 371 763.3 359 736.2 343C709 327 682 307 654.8 324C627.7 341 600.3 395 573 410C545.7 425 518.3 401 491 374C463.7 347 436.3 317 409 310C381.7 303 354.3 319 327 335C299.7 351 272.3 367 245.2 388C218 409 191 435 163.8 433C136.7 431 109.3 401 82 376C54.7 351 27.3 331 13.7 321L0 311Z" fill="#af332a"></path><path d="M0 601L13.7 601C27.3 601 54.7 601 82 601C109.3 601 136.7 601 163.8 601C191 601 218 601 245.2 601C272.3 601 299.7 601 327 601C354.3 601 381.7 601 409 601C436.3 601 463.7 601 491 601C518.3 601 545.7 601 573 601C600.3 601 627.7 601 654.8 601C682 601 709 601 736.2 601C763.3 601 790.7 601 818 601C845.3 601 872.7 601 886.3 601L900 601L900 413L886.3 420C872.7 427 845.3 441 818 447C790.7 453 763.3 451 736.2 432C709 413 682 377 654.8 386C627.7 395 600.3 449 573 472C545.7 495 518.3 487 491 465C463.7 443 436.3 407 409 391C381.7 375 354.3 379 327 391C299.7 403 272.3 423 245.2 442C218 461 191 479 163.8 477C136.7 475 109.3 453 82 428C54.7 403 27.3 375 13.7 361L0 347Z" fill="#952b25"></path></svg>