<svg id="visual" viewBox="0 0 900 600" width="900" height="600" xmlns="http://www.w3.org/2000/svg" xmlns:xlink="http://www.w3.org/1999/xlink" version="1.1"><path d="M0 79L82 79L82 85L164 85L164 85L245 85L245 91L327 91L327 55L409 55L409 85L491 85L491 73L573 73L573 37L655 37L655 91L736 91L736 103L818 103L818 85L900 85L900 37L900 0L900 0L818 0L818 0L736 0L736 0L655 0L655 0L573 0L573 0L491 0L491 0L409 0L409 0L327 0L327 0L245 0L245 0L164 0L164 0L82 0L82 0L0 0Z" fill="#e07a72"></path><path d="M0 157L82 157L82 163L164 163L164 157L245 157L245 145L327 145L327 145L409 145L409 211L491 211L491 223L573 223L573 187L655 187L655 163L736 163L736 253L818 253L818 169L900 169L900 115L900 35L900 83L818 83L818 101L736 101L736 89L655 89L655 35L573 35L573 71L491 71L491 83L409 83L409 53L327 53L327 89L245 89L245 83L164 83L164 83L82 83L82 77L0 77Z" fill="#aa5873"></path><path d="M0 277L82 277L82 235L164 235L164 247L245 247L245 223L327 223L327 187L409 187L409 301L491 301L491 265L573 265L573 283L655 283L655 211L736 211L736 313L818 313L818 235L900 235L900 175L900 113L900 167L818 167L818 251L736 251L736 161L655 161L655 185L573 185L573 221L491 221L491 209L409 209L409 143L327 143L327 143L245 143L245 155L164 155L164 161L82 161L82 155L0 155Z" fill="#6b4066"></path><path d="M0 427L82 427L82 349L164 349L164 505L245 505L245 397L327 397L327 373L409 373L409 409L491 409L491 361L573 361L573 397L655 397L655 427L736 427L736 433L818 433L818 427L900 427L900 325L900 173L900 233L818 233L818 311L736 311L736 209L655 209L655 281L573 281L573 263L491 263L491 299L409 299L409 185L327 185L327 221L245 221L245 245L164 245L164 233L82 233L82 275L0 275Z" fill="#2f2a49"></path><path d="M0 601L82 601L82 601L164 601L164 601L245 601L245 601L327 601L327 601L409 601L409 601L491 601L491 601L573 601L573 601L655 601L655 601L736 601L736 601L818 601L818 601L900 601L900 601L900 323L900 425L818 425L818 431L736 431L736 425L655 425L655 395L573 395L573 359L491 359L491 407L409 407L409 371L327 371L327 395L245 395L245 503L164 503L164 347L82 347L82 425L0 425Z" fill="#001122"></path></svg>